PathFileType	4	(X/Y/Z)	F:\PHD\Matlab_Output_Files\Ahelaos\HopStudy\HopDistance\Right\HDR_1\HDR_1.trc
DataRate	CameraRate	NumFrames	NumMarkers	Units	OrigDataRate	OrigDataStartFrame	OrigNumFrames
100.000000	100.000000	8	46	m	100.000000	0	357
Frame#	Times			LFHD			RFHD			LBHD			RBHD			C7			T10			CLAV			STRN			RBAK			LSHO			LELB			LWRA			LWRB			LFIN			RSHO			RELB			RWRA			RWRB			RFIN			LASI			RASI			SACR			RPSI			LPSI			LTHI			LTHI2			LTHI3			LKNE			LTIB			LTIB2			LTIB3			LANK			LHEE			LTOE			LLatFoot			RTHI			RTHI2			RTHI3			RKNE			RTIB			RTIB2			RTIB3			RANK			RHEE			RTOE			RLatFoot
		X1	Y1	Z1	X2	Y2	Z2	X3	Y3	Z3	X4	Y4	Z4	X5	Y5	Z5	X6	Y6	Z6	X7	Y7	Z7	X8	Y8	Z8	X9	Y9	Z9	X10	Y10	Z10	X11	Y11	Z11	X12	Y12	Z12	X13	Y13	Z13	X14	Y14	Z14	X15	Y15	Z15	X16	Y16	Z16	X17	Y17	Z17	X18	Y18	Z18	X19	Y19	Z19	X20	Y20	Z20	X21	Y21	Z21	X22	Y22	Z22	X23	Y23	Z23	X24	Y24	Z24	X25	Y25	Z25	X26	Y26	Z26	X27	Y27	Z27	X28	Y28	Z28	X29	Y29	Z29	X30	Y30	Z30	X31	Y31	Z31	X32	Y32	Z32	X33	Y33	Z33	X34	Y34	Z34	X35	Y35	Z35	X36	Y36	Z36	X37	Y37	Z37	X38	Y38	Z38	X39	Y39	Z39	X40	Y40	Z40	X41	Y41	Z41	X42	Y42	Z42	X43	Y43	Z43	X44	Y44	Z44	X45	Y45	Z45	X46	Y46	Z46

0	0	-0.86868	1.6161	0.10445	-0.86512	1.6042	0.21896	-0.9975	1.7471	0.11552	-0.98262	1.7146	0.24445	-1.1709	1.6102	0.16359	-1.2696	1.2918	0.14678	-1.0543	1.4949	0.161	-1.0525	1.3327	0.14583	-1.2433	1.5021	0.28715	-1.1415	1.5663	-0.012795	-1.2117	1.2067	-0.11723	-1.0867	0.93176	-0.080316	-1.138	0.91267	-0.13794	-1.0742	0.86364	-0.12498	-1.1026	1.5497	0.31918	-1.2075	1.2007	0.43518	-1.0852	0.92612	0.40811	-1.1442	0.90492	0.45128	-1.082	0.85528	0.45484	-1.0731	1.0705	0.025991	-1.0704	1.0625	0.26477	-1.2639	1.1179	0.13874	-1.255	1.128	0.19845	-1.2528	1.1355	0.087734	-1.2192	0.76248	-0.0319	-1.1211	0.78278	-0.041862	-1.1557	0.70076	-0.040637	-1.1683	0.52955	-0.018856	-1.2542	0.35301	-0.039463	-1.1894	0.34088	-0.034925	-1.2268	0.29488	-0.034173	-1.2529	0.10977	0.0043382	-1.2958	0.10894	0.036168	-1.1096	0.048501	0.010611	-1.1973	0.029442	-0.017856	-1.1285	0.77004	0.32112	-1.2229	0.75082	0.3037	-1.1612	0.69507	0.31364	-1.1703	0.52744	0.28753	-1.1836	0.32644	0.29151	-1.2523	0.33119	0.29801	-1.2219	0.28055	0.28978	-1.2385	0.10615	0.24774	-1.2859	0.10686	0.19591	-1.103	0.047865	0.24843	-1.1875	0.028198	0.2709
1	0.01	-0.86867	1.6161	0.10447	-0.86495	1.6042	0.22017	-0.99733	1.7471	0.1166	-0.98255	1.7146	0.24506	-1.1708	1.6102	0.16434	-1.2695	1.2918	0.14742	-1.0541	1.495	0.16172	-1.0524	1.3328	0.14654	-1.2432	1.5021	0.28779	-1.1413	1.5663	-0.012059	-1.2113	1.2066	-0.11692	-1.0862	0.93206	-0.07976	-1.1377	0.91272	-0.1377	-1.0738	0.86359	-0.12475	-1.106	1.5477	0.31965	-1.2078	1.2007	0.43571	-1.0857	0.92585	0.40872	-1.1447	0.905	0.45195	-1.0826	0.85491	0.45526	-1.0731	1.0705	0.026235	-1.0701	1.0627	0.26533	-1.2635	1.1177	0.13917	-1.255	1.128	0.19898	-1.2528	1.1354	0.088242	-1.2191	0.76238	-0.031224	-1.1211	0.78282	-0.041573	-1.1559	0.70098	-0.040479	-1.1683	0.52953	-0.018657	-1.2543	0.35317	-0.039274	-1.1894	0.34096	-0.034788	-1.2268	0.29489	-0.033944	-1.2531	0.10976	0.0042629	-1.2959	0.10924	0.036671	-1.1096	0.04855	0.010629	-1.1969	0.029503	-0.018266	-1.1283	0.76999	0.3215	-1.2227	0.75085	0.30424	-1.1611	0.69544	0.31408	-1.1702	0.52744	0.28778	-1.1836	0.32638	0.29162	-1.2488	0.32941	0.29704	-1.2218	0.28054	0.28995	-1.2385	0.10617	0.24777	-1.286	0.10691	0.19597	-1.103	0.047896	0.2484	-1.1875	0.02823	0.2709
2	0.02	-0.86866	1.6161	0.10448	-0.86493	1.6041	0.2208	-0.99702	1.7471	0.11729	-0.98246	1.7145	0.24588	-1.1708	1.6101	0.16489	-1.2695	1.2918	0.14778	-1.054	1.4949	0.16234	-1.0522	1.3326	0.14703	-1.243	1.5022	0.28857	-1.1411	1.5663	-0.011653	-1.2109	1.2066	-0.11647	-1.086	0.93196	-0.079516	-1.1372	0.91242	-0.13756	-1.0732	0.8636	-0.12443	-1.106	1.5474	0.32035	-1.208	1.2006	0.43639	-1.086	0.92586	0.40927	-1.145	0.9048	0.45231	-1.0831	0.85471	0.456	-1.0731	1.0703	0.026575	-1.07	1.0624	0.26565	-1.2636	1.1178	0.14001	-1.2548	1.1279	0.19959	-1.2527	1.1354	0.088794	-1.2191	0.7624	-0.030664	-1.1211	0.78285	-0.041283	-1.156	0.70101	-0.040262	-1.1677	0.52912	-0.018517	-1.2542	0.35316	-0.038968	-1.1894	0.341	-0.034651	-1.2267	0.29487	-0.033757	-1.253	0.10984	0.0044206	-1.2959	0.10926	0.036781	-1.1096	0.048568	0.010643	-1.197	0.029472	-0.018252	-1.128	0.76991	0.32174	-1.2225	0.75083	0.30475	-1.1609	0.69547	0.3144	-1.17	0.52742	0.288	-1.1835	0.32629	0.29178	-1.2488	0.32878	0.29701	-1.2218	0.2805	0.29004	-1.2385	0.1061	0.24779	-1.2859	0.10691	0.19603	-1.1031	0.047786	0.24828	-1.1875	0.028231	0.2709
3	0.03	-0.86865	1.6162	0.1045	-0.86481	1.6039	0.22165	-0.99685	1.747	0.11777	-0.98237	1.7144	0.24681	-1.1706	1.6101	0.16548	-1.2694	1.2919	0.14825	-1.0538	1.4948	0.16289	-1.0519	1.3327	0.1476	-1.2429	1.5022	0.28918	-1.1409	1.5663	-0.01104	-1.2104	1.2064	-0.1155	-1.0855	0.93191	-0.079226	-1.1367	0.9124	-0.13738	-1.0727	0.86364	-0.1243	-1.1059	1.5475	0.32094	-1.2081	1.2006	0.43706	-1.0863	0.92626	0.41042	-1.1454	0.90486	0.45319	-1.0835	0.85467	0.45658	-1.0731	1.0703	0.027025	-1.0699	1.0625	0.2661	-1.2636	1.1177	0.14052	-1.2546	1.1279	0.20019	-1.2528	1.1354	0.08927	-1.2182	0.7627	-0.030056	-1.1211	0.78287	-0.041028	-1.1559	0.70101	-0.04	-1.1677	0.52913	-0.018289	-1.2542	0.35317	-0.038748	-1.1893	0.34101	-0.034485	-1.2266	0.29482	-0.033447	-1.253	0.10984	0.0045092	-1.2958	0.10926	0.036823	-1.1096	0.048564	0.010649	-1.197	0.02952	-0.018209	-1.1278	0.7698	0.32196	-1.2224	0.7508	0.3051	-1.1606	0.69537	0.3147	-1.1698	0.52742	0.28827	-1.1835	0.32616	0.2919	-1.2488	0.32873	0.29723	-1.2218	0.28042	0.29011	-1.2385	0.10609	0.24785	-1.2861	0.10693	0.19619	-1.1031	0.047743	0.2483	-1.1875	0.028217	0.27092
4	0.04	-0.86852	1.6165	0.10463	-0.86478	1.6037	0.22233	-0.99657	1.7468	0.11851	-0.98236	1.7143	0.24741	-1.1705	1.6101	0.16617	-1.2693	1.2918	0.14873	-1.0537	1.4947	0.16351	-1.0517	1.3327	0.14803	-1.2429	1.5019	0.28946	-1.1405	1.5663	-0.010456	-1.2098	1.2063	-0.11497	-1.0852	0.93173	-0.07908	-1.1361	0.91235	-0.13718	-1.0722	0.86374	-0.12405	-1.106	1.5475	0.32155	-1.2084	1.2006	0.43773	-1.0869	0.9257	0.41071	-1.1459	0.90522	0.45426	-1.084	0.8547	0.45735	-1.0732	1.0703	0.027449	-1.0698	1.0623	0.26645	-1.2635	1.1178	0.14094	-1.2544	1.1277	0.20061	-1.2527	1.1354	0.089735	-1.2181	0.76263	-0.029566	-1.1209	0.78271	-0.040746	-1.1558	0.70101	-0.039787	-1.1681	0.52958	-0.017938	-1.2541	0.35316	-0.038578	-1.1893	0.34102	-0.03434	-1.2266	0.29486	-0.03329	-1.253	0.10985	0.0045252	-1.2958	0.10927	0.036883	-1.1096	0.048554	0.010683	-1.197	0.029451	-0.018172	-1.1276	0.76971	0.32227	-1.2221	0.75076	0.30555	-1.1603	0.69524	0.31502	-1.1697	0.52732	0.28846	-1.1834	0.32611	0.29202	-1.2486	0.32871	0.29744	-1.2217	0.28035	0.29021	-1.2385	0.10603	0.2479	-1.2861	0.10693	0.19632	-1.103	0.047874	0.24835	-1.1875	0.028153	0.27091
5	0.05	-0.86831	1.6165	0.10547	-0.86457	1.6038	0.22342	-0.99629	1.7467	0.11943	-0.98226	1.7143	0.24808	-1.1702	1.6101	0.16679	-1.2691	1.2918	0.14928	-1.0535	1.4948	0.16414	-1.0517	1.3326	0.14862	-1.2429	1.5018	0.28979	-1.1403	1.5663	-0.009945	-1.2096	1.2067	-0.11465	-1.0849	0.9315	-0.078794	-1.1354	0.91241	-0.13697	-1.0718	0.86383	-0.12376	-1.1057	1.5473	0.3222	-1.2086	1.2007	0.43833	-1.0873	0.92567	0.4112	-1.1464	0.90491	0.45456	-1.0845	0.85463	0.45805	-1.0733	1.0704	0.027709	-1.0697	1.0622	0.2668	-1.2635	1.1178	0.14137	-1.2543	1.1277	0.2009	-1.2527	1.1354	0.090188	-1.2181	0.76255	-0.029226	-1.1209	0.78269	-0.040533	-1.1556	0.70077	-0.039382	-1.168	0.52961	-0.017625	-1.254	0.35322	-0.038307	-1.1893	0.34105	-0.034203	-1.2266	0.29484	-0.033176	-1.2529	0.10981	0.0046486	-1.2958	0.10924	0.036979	-1.1096	0.048553	0.010677	-1.197	0.029475	-0.018161	-1.1274	0.7696	0.3225	-1.2219	0.75069	0.30594	-1.1601	0.69514	0.31527	-1.1695	0.52724	0.28859	-1.1833	0.32596	0.29197	-1.2485	0.32868	0.29757	-1.2216	0.28027	0.2902	-1.2384	0.10604	0.24794	-1.2861	0.10691	0.19633	-1.1031	0.04772	0.24824	-1.1875	0.028136	0.27088
6	0.06	-0.86794	1.6164	0.10694	-0.86442	1.6038	0.22413	-0.99639	1.747	0.12044	-0.9821	1.7142	0.24904	-1.1702	1.6101	0.16729	-1.269	1.2919	0.14966	-1.0533	1.4948	0.16467	-1.0516	1.3326	0.14922	-1.2427	1.5019	0.29056	-1.1401	1.5664	-0.0093636	-1.209	1.2069	-0.11445	-1.0845	0.93163	-0.078743	-1.1349	0.91259	-0.13688	-1.0714	0.8638	-0.12371	-1.1055	1.5472	0.32283	-1.2089	1.2006	0.43878	-1.0879	0.9254	0.4118	-1.1469	0.90465	0.45502	-1.0851	0.85449	0.45856	-1.0733	1.0704	0.028027	-1.0696	1.0622	0.26718	-1.2634	1.1177	0.14187	-1.2542	1.1277	0.20138	-1.2525	1.1353	0.090667	-1.218	0.76251	-0.028982	-1.1208	0.78286	-0.040285	-1.1556	0.70069	-0.039096	-1.1678	0.52956	-0.017392	-1.254	0.35321	-0.038163	-1.1892	0.34103	-0.034089	-1.2267	0.29476	-0.032718	-1.2529	0.10982	0.0046675	-1.2958	0.10924	0.036972	-1.1095	0.048554	0.010669	-1.197	0.029408	-0.018215	-1.1272	0.76965	0.32271	-1.2218	0.7506	0.30622	-1.16	0.69524	0.31546	-1.1694	0.52721	0.28872	-1.1831	0.3259	0.29205	-1.2484	0.32869	0.29763	-1.2215	0.28023	0.29023	-1.2384	0.10605	0.24794	-1.286	0.10699	0.19631	-1.1031	0.047734	0.24825	-1.1875	0.028202	0.27088
7	0.07	-0.86742	1.6163	0.10855	-0.86428	1.604	0.2251	-0.99602	1.7467	0.12087	-0.9821	1.7141	0.24978	-1.17	1.6101	0.16782	-1.2688	1.2919	0.14999	-1.053	1.4948	0.16542	-1.0513	1.3326	0.14986	-1.2425	1.5019	0.29118	-1.1397	1.5664	-0.0087061	-1.2083	1.2069	-0.11401	-1.0841	0.93172	-0.078559	-1.1345	0.91296	-0.13665	-1.0708	0.86394	-0.12359	-1.1056	1.5472	0.32345	-1.2091	1.2006	0.43919	-1.0884	0.92518	0.41239	-1.1477	0.90457	0.45551	-1.0858	0.85422	0.45913	-1.0733	1.0704	0.028449	-1.0695	1.0622	0.26757	-1.2631	1.1177	0.14238	-1.2542	1.1277	0.20179	-1.2523	1.1354	0.091066	-1.2189	0.76254	-0.028741	-1.1208	0.78272	-0.040011	-1.1556	0.70068	-0.038796	-1.1678	0.52961	-0.01717	-1.254	0.3533	-0.038159	-1.1892	0.34103	-0.034025	-1.2264	0.29478	-0.032899	-1.253	0.10981	0.0045578	-1.2958	0.1092	0.036925	-1.1096	0.048566	0.010646	-1.197	0.029375	-0.018289	-1.1271	0.76969	0.32292	-1.2217	0.75054	0.30647	-1.1598	0.69503	0.31568	-1.1693	0.52722	0.28884	-1.1831	0.32595	0.29217	-1.2483	0.32865	0.29765	-1.2214	0.28024	0.2903	-1.2384	0.10606	0.24796	-1.286	0.10699	0.19629	-1.103	0.047895	0.24835	-1.1874	0.028207	0.27085
